<?xml version="1.0" encoding="utf-8"?>
<!-- Generator: Adobe Illustrator 19.0.0, SVG Export Plug-In . SVG Version: 6.00 Build 0)  -->
<svg version="1.1" id="Layer_1" xmlns="http://www.w3.org/2000/svg" xmlns:xlink="http://www.w3.org/1999/xlink" x="0px" y="0px"
	 viewBox="0 0 720 126" style="enable-background:new 0 0 720 126;" xml:space="preserve">
<style type="text/css">
	.st0{fill:#334454;}
	.st1{fill:#F15A5B;}
	.st2{fill:#2DA852;}
</style>
<g>
	<path class="st0" d="M63.7,79.4l0.1-79.1l25.8,0l-0.1,75.9c0,5.3,1.2,6.6,6.6,6.7l2.2,0l3,20.9c-2,0.3-9.9,0.8-14.8,0.8
		C72.4,104.5,63.7,99.6,63.7,79.4z"/>
	<path class="st0" d="M261.4,31.2l20.1-1.5l2,6c4-3.8,11.1-7.5,26.2-7.5c26.1,0,32,18.4,32,38.9c0,20.6-6.7,38.7-33.7,38.7
		c-12,0-17.6-2.8-20.8-5.8l0,26.1l-25.8,0L261.4,31.2z M315.4,68c0-8.7-1.5-16.4-12.8-16.4c-12,0-15.5,6.1-15.5,16.4
		s2.6,15.9,15.5,15.9C313.6,83.9,315.4,76.8,315.4,68z"/>
	<path class="st0" d="M433.7,31.4l20.1-1.5l2.6,7.8c3.3-4.4,12.3-8.2,22.9-8.6l0,24.8c-17.2,0.1-19.8,5.2-19.8,15.4l0,35.3l-25.8,0
		L433.7,31.4z"/>
	<path class="st0" d="M486.5,29.1l13.3,0L504,14l19.9-4.3l0,19.5l16.3,0l0,24.8l-16.3,0l0,21.5c0,5.1,0.8,7.7,8.9,7.7l7.4,0l0,21.5
		c-3.9,0.3-8.2,0.4-13,0.4c-21.8,0-28.9-6.9-28.9-25.7l0-25.4l-11.7,0L486.5,29.1z"/>
	<rect x="547.3" y="83.2" class="st1" width="21.5" height="21.5"/>
	<path class="st0" d="M0,29.5l14.1,0l0-1.4C14.1,9.4,21.2,0,45.4,0c6.4,0,7.6,0.1,10.7,0.4l0,21l-7.2,0c-7.4,0-9,1.8-9,6.6l0,1.6
		l16.2,0l0,21.9l-16.2,0l-0.1,52.8l-25.8,0l0.1-52.8L0,51.4L0,29.5z"/>
	<path class="st0" d="M157.6,82.1c-4.3,2.5-6.5,3-15,3c-10.1,0-14-3.6-15.3-9.7l49.6,0c0.9-26.3-1.2-47.5-34.3-47.6
		c-33.2,0-40.2,18.2-40.2,38.6c0,20.9,7,39.2,40.1,39.2c13.1,0,21.3-2.4,30.1-8.1L157.6,82.1z M141.9,49.1
		c10.6,0,11.4,5.1,11.8,11.2l-26.6,0C128.1,53.1,131.5,49.1,141.9,49.1z"/>
	<g>
		<polygon class="st0" points="228.1,104.5 215.4,86.4 202.8,104.4 173.9,104.4 201,66 176.5,31.2 205.6,31.2 215.6,45.4 
			225.6,31.2 255.1,31.3 230.1,65.8 257.1,104.5 		"/>
	</g>
	<path class="st0" d="M347,67c0-24.8,11.4-38.8,40.6-38.8c29.2,0,40.4,14.1,40.4,38.9c0,24.8-11.2,39-40.4,38.9
		C358.3,106,347,91.8,347,67z M402,67.8c0-9.4-2.3-16.2-14.4-16.2c-12.1,0-14.5,6.8-14.5,16.1c0,9.3,2.3,16.2,14.4,16.2
		C399.6,84,402,77.1,402,67.8z"/>
	<g>
		<path class="st2" d="M609.8,105.6c-9.4,0-16.2-2.4-20.3-7.2c-4.1-4.8-6.1-11.9-6.1-21.3s2-16.5,6.1-21.3
			c4.1-4.8,10.8-7.2,20.3-7.2c9.4,0,16.2,2.4,20.3,7.2s6.1,11.9,6.1,21.3s-2,16.5-6.1,21.3C626,103.2,619.3,105.6,609.8,105.6z
			 M609.8,98.8c6.9,0,11.7-1.8,14.6-5.5c2.8-3.7,4.3-9,4.3-16c0-7-1.4-12.4-4.3-16.1c-2.8-3.7-7.7-5.5-14.6-5.5
			c-6.9,0-11.7,1.8-14.6,5.5c-2.8,3.7-4.3,9.1-4.3,16.1c0,6.9,1.4,12.3,4.3,16C598.1,96.9,602.9,98.8,609.8,98.8z"/>
		<g>
			<path class="st2" d="M644.5,104.5V50.2l5.9-0.4l0.8,7.3c1.1-2.1,3.2-4,6.5-5.5c3.3-1.6,7.4-2.4,12.4-2.5v7.5
				c-6.7,0-11.4,1.7-14.1,5.2c-2.7,3.4-4.1,7.8-4.1,13.2v29.5H644.5z"/>
		</g>
		<path class="st2" d="M714.2,49.9l-1,7.7c-3.5-5.2-9.2-8-16.9-8c-8.3,0-14.1,2.1-17.7,6.3c-3.5,4.2-5.3,10.4-5.3,18.6
			s1.8,14.4,5.3,18.6c3.5,4.2,9.4,6.3,17.7,6.3c7.3,0,12.6-2.9,16.4-7.4v7.8c0,0.6,0,1.2-0.1,1.8v0.1h0c-0.7,10-6.7,16.3-16.8,16.3
			c-11.5,0-17.4-7.8-17.4-7.9l-0.7-0.9l-5,4.7l0.5,0.6c0.3,0.4,8.3,10.1,22.6,10.1c14.7,0,24.2-9.8,24.2-25.1V49.9H714.2z M709,88.7
			c-2.5,3.2-6.7,4.8-12.7,4.8c-6,0-10.2-1.6-12.7-4.8c-2.5-3.2-3.7-7.9-3.7-13.9c0-6.1,1.2-10.8,3.7-14c2.5-3.2,6.7-4.8,12.7-4.8
			c6,0,10.2,1.6,12.7,4.8c2.2,2.9,3.4,7.1,3.6,12.3c0,1,0,2.1,0,3.2C712.5,81.5,711.3,85.7,709,88.7z"/>
	</g>
</g>
</svg>
